<svg width="42" height="42" viewBox="0 0 42 42" fill="none" xmlns="http://www.w3.org/2000/svg">
<circle cx="21" cy="21" r="21" transform="rotate(180 21 21)" fill="#C1C4D1"/>
<path d="M17.1206 18.2899L21.0006 22.1699L24.8806 18.2899C24.9732 18.1974 25.0831 18.1239 25.2041 18.0738C25.3251 18.0237 25.4547 17.9979 25.5856 17.9979C25.7166 17.9979 25.8462 18.0237 25.9672 18.0738C26.0882 18.1239 26.1981 18.1974 26.2906 18.2899C26.3832 18.3825 26.4567 18.4924 26.5068 18.6134C26.5569 18.7344 26.5827 18.864 26.5827 18.9949C26.5827 19.1259 26.5569 19.2555 26.5068 19.3765C26.4567 19.4975 26.3832 19.6074 26.2906 19.6999L21.7006 24.2899C21.6081 24.3826 21.4982 24.4562 21.3773 24.5064C21.2563 24.5566 21.1266 24.5824 20.9956 24.5824C20.8647 24.5824 20.735 24.5566 20.614 24.5064C20.493 24.4562 20.3832 24.3826 20.2906 24.2899L15.7006 19.6999C15.6079 19.6074 15.5344 19.4975 15.4842 19.3766C15.434 19.2556 15.4082 19.1259 15.4082 18.9949C15.4082 18.864 15.434 18.7343 15.4842 18.6133C15.5344 18.4923 15.6079 18.3825 15.7006 18.2899C16.0906 17.9099 16.7306 17.8999 17.1206 18.2899Z" fill="#130944"/>
</svg>
